<?xml version="1.0" encoding="UTF-8"?><svg enable-background="new 0 0 512 512" version="1.1" viewBox="0 0 512 512" xmlns="http://www.w3.org/2000/svg"><linearGradient id="d" x1="240.45" x2="271.55" y1="346.48" y2="328.53" gradientTransform="matrix(1.2773 0 0 1.2773 -70.993 -71.002)" gradientUnits="userSpaceOnUse"><stop stop-color="#ff3d74" offset="0"/><stop stop-color="#ff1515" offset="1"/></linearGradient><path d="m256.01 337.17c-12.647 0-22.938 10.29-22.938 22.937 0 12.649 10.291 22.939 22.938 22.939 12.649 0 22.939-10.29 22.939-22.939 0-12.648-10.29-22.937-22.939-22.937zm0 33.103c-5.605 0-10.165-4.56-10.165-10.166 0-5.605 4.56-10.164 10.165-10.164 5.607 0 10.165 4.559 10.165 10.164 0 5.606-4.558 10.166-10.165 10.166z" fill="url(#d)" style=""/><linearGradient id="e" x1="222.9" x2="290.6" y1="274.25" y2="235.16" gradientTransform="matrix(1.2773 0 0 1.2773 -70.993 -71.002)" gradientUnits="userSpaceOnUse"><stop stop-color="#ff3d74" offset="0"/><stop stop-color="#ff1515" offset="1"/></linearGradient><path d="m262.14 185.14h-12.26c-11.974 0-21.714 9.741-21.714 21.715l3.831 98.417c0.075 11.912 9.786 21.581 21.716 21.581h4.595c11.929 0 21.642-9.668 21.715-21.581l3.827-98.168 5e-3 -0.249c0-11.974-9.74-21.715-21.715-21.715zm5.115 119.75-5e-3 0.249c0 4.93-4.011 8.942-8.942 8.942h-4.595c-4.931 0-8.942-4.012-8.942-8.942l-3.832-98.391c0.059-4.88 4.047-8.834 8.941-8.834h12.26c4.895 0 8.884 3.954 8.941 8.834l-3.826 98.142z" fill="url(#e)" style=""/><linearGradient id="f" x1="91.104" x2="420.9" y1="351.2" y2="160.8" gradientTransform="matrix(1.2773 0 0 1.2773 -70.993 -71.002)" gradientUnits="userSpaceOnUse"><stop stop-color="#3a86ff" offset="0"/><stop stop-color="#8338ec" offset="1"/></linearGradient><path d="m395.67 85.817h-279.34c-41.002 0-74.356 33.356-74.356 74.356v191.65c0 41.001 33.354 74.356 74.356 74.356h279.34c41 0 74.356-33.355 74.356-74.356v-191.65c1e-3 -41-33.356-74.355-74.355-74.355l-1e-3 -1e-3zm-279.34 12.773h279.34c27.204 0 50.329 17.739 58.457 42.253h-396.26c8.126-24.514 31.25-42.253 58.456-42.253h1e-3zm340.92 253.23c0 33.956-27.625 61.582-61.583 61.582h-279.34c-33.957 0-61.582-27.626-61.582-61.582v-191.65c0-2.215 0.123-4.402 0.352-6.557h401.8c0.23 2.155 0.352 4.342 0.352 6.557v191.65h4e-3z" fill="url(#f)" style=""/><circle cx="112.51" cy="121.14" r="7.343" fill="#3a86ff" style=""/><circle cx="143.73" cy="121.14" r="7.343" fill="#3a86ff" style=""/><circle cx="175.39" cy="121.14" r="7.343" fill="#3a86ff" style=""/></svg>
