<?xml version="1.0" encoding="UTF-8"?>
<svg fill="none" viewBox="0 0 298 672" xmlns="http://www.w3.org/2000/svg">
<path d="m108.4 358.74-73.054-13.421c-3.0967-0.569-6.0683 1.48-6.6372 4.577l-13.421 73.055c-0.5689 3.097 1.4803 6.068 4.577 6.637l73.055 13.421c3.0968 0.569 6.0684-1.48 6.6373-4.577l13.421-73.055c0.569-3.096-1.48-6.068-4.577-6.637z" fill="#F7D800"/>
<path d="m64.772 390.65c-3.0635 16.675-4.7836 26.039-5.1604 28.09-0.5652 3.076-3.126 6.685-8.3125 5.732-8.3756-1.539-7.4879-8.635-7.4879-8.635m50.201-10.683c-1.4551-3.936-3.9222-6.223-7.4013-6.862-5.4325-0.998-9.0844 1.961-9.7294 5.472-0.6451 3.511 0.4655 7.345 7.1949 10.396 4.2823 1.941 8.1034 5.118 7.1358 10.385-0.9675 5.267-5.9089 6.174-10.068 5.41-5.3154-0.977-8.3966-3.963-9.2435-8.958" stroke="#fff" stroke-width="7.1399"/>
<path d="m176.52 653.69 6.711-63.247 60.89 12.001-17.795 61.052-26.298 1.999-23.508-11.805z" fill="#1572B6"/>
<path d="m201.1 660.22 21.252-1.615 15.207-52.172-24.891-4.905-11.568 58.692z" fill="#33A9DC"/>
<path d="m208.23 624.04 10.087 1.988 2.234-7.669-10.783-2.125 1.503-7.624 0.027 5e-3 19.087 3.762-0.585 2.009-6.013 20.64-17.06-3.363 1.503-7.623z" fill="#fff"/>
<path d="m204.38 643.85-0.037 3e-3 -8.037-3.967 0.656-6.187-4.127-0.813-3.527-0.695-1.291 12.18 14.76 7.413 0.039-2e-3 1.564-7.932z" fill="#EBEBEB"/>
<path d="m216.23 633.2-2.93 10.027-8.953 0.618-1.564 7.932 16.481-1.251 0.37-1.264 4.244-14.555-7.648-1.507z" fill="#fff"/>
<path d="m211.3 608.62-0.933 4.736-0.566 2.868-4e-3 0.02-18.389-3.624-0.025-5e-3 0.185-1.745 0.414-3.933 0.221-2.081 19.097 3.764z" fill="#EBEBEB"/>
<path d="m208.23 624.04-0.934 4.735-0.565 2.869-4e-3 0.019-8.358-1.647-0.025-5e-3 0.185-1.744 0.416-3.933 0.221-2.081 9.064 1.787z" fill="#EBEBEB"/>
<path d="m154.05 93.812 79.989 10.976-18.609 76.222-30.427 3.974-5.332-0.731-28.232-12.024 2.611-78.417z" fill="#E64C18"/>
<path d="m192.94 107.3 29.329 4.025-13.747 60.593-25.094 4.706 9.512-69.324z" fill="#F36518"/>
<path d="m212.13 126.19 1.933-7.849-46.3-6.354-0.16 8.093-0.617 10.835-0.011-1e-3 -0.287 8.088 31.038 4.259-2.808 12.545-8.841 1.515 0.012-0.083-10.859-4.524 0.269-7.089-9.409-1.291-0.499 13.02-0.072 0.525 19.374 8.072 17.588-3 0.206 0.028 0.015-0.071 0.038-1e-3 0.057-0.421 4.021-17.977 0.035 5e-3 1.905-7.867-31.987-4.389 0.617-10.836 34.742 4.768z" fill="#fff"/>
<path d="m191.85 115.3-24.082-3.305-0.16 8.093-0.617 10.835-0.011-1e-3 -0.287 8.088 21.498 2.95 1.095-7.977-12.51-1.717 0.617-10.836 13.364 1.834 1.093-7.964z" fill="#fff"/>
<path d="m186.09 157.24-10.859-4.524 0.269-7.089-9.409-1.291-0.499 13.02-0.072 0.525 19.374 8.072 1.184-8.63 0.012-0.083z" fill="#fff"/>
<path d="m255.46 462.43c-1.863-0.987-3.802-1.949-5.807-2.886 0.567-1.355 1.102-2.696 1.599-4.018 8.153-21.723 7.972-40.284-1.417-47.861-9.004-7.266-26.132-3.859-44.722 7.803-1.788 1.121-3.593 2.322-5.408 3.593-0.892-1.17-1.788-2.306-2.688-3.399-14.747-17.911-30.918-27.025-42.172-22.675-10.792 4.172-16.394 20.713-15.575 42.643 0.079 2.119 0.219 4.291 0.415 6.508-2.54 0.308-5.003 0.675-7.372 1.105-21.194 3.847-35.753 12.809-37.543 24.197-1.8489 11.762 10.072 25.725 29.877 36.169 1.563 0.824 3.193 1.627 4.879 2.411-0.936 2.218-1.79 4.401-2.555 6.541-7.256 20.282-6.765 37.37 2.205 44.611 9.267 7.478 27.317 4.126 46.258-7.813 1.497-0.944 3.01-1.956 4.534-3.027 1.456 1.921 2.922 3.753 4.395 5.487 13.948 16.416 28.998 24.525 39.751 20.368 11.106-4.293 17.217-21.605 16.333-43.977-0.068-1.709-0.183-3.461-0.341-5.252 1.256-0.166 2.493-0.347 3.703-0.548 22.89-3.788 38.879-13.217 40.752-25.136 1.797-11.43-9.712-24.565-29.101-34.844zm-12.992 51.884c-1.091 0.18-2.208 0.345-3.344 0.496-1.207-7.982-3.177-16.577-5.831-25.555 5.067-7.56 9.438-15.052 12.961-22.24 1.853 0.867 3.644 1.756 5.362 2.666 16.612 8.807 25.92 19.43 24.837 26.318-1.153 7.337-14.22 15.043-33.985 18.315zm-10.222 14.22c0.391 9.893-0.702 18.609-3.025 25.193-2.089 5.915-5 9.62-8.067 10.805-6.525 2.522-18.609-3.989-30.537-18.028-1.368-1.609-2.732-3.312-4.088-5.101 6.267-5.009 12.68-10.968 19.084-17.699 9.303 0.628 18.18 0.659 26.327 0.078 0.142 1.622 0.245 3.208 0.306 4.752zm-84.524 23.842c-6.168 1.145-10.832 0.473-13.39-1.592-5.444-4.394-5.838-18.113 0.367-35.459 0.711-1.986 1.505-4.017 2.376-6.083 7.504 2.941 15.915 5.531 24.995 7.722 4.09 8.215 8.521 15.872 13.128 22.69-1.395 0.978-2.776 1.902-4.14 2.762-8.375 5.279-16.472 8.686-23.336 9.96zm-19.247-56.027c-8.757-4.618-15.753-9.93-20.287-15.24-4.074-4.771-5.821-9.147-5.311-12.394 1.087-6.911 12.776-14.106 30.902-17.397 2.199-0.399 4.489-0.741 6.856-1.028 1.16 8.098 3.006 16.665 5.482 25.424-5.111 7.69-9.561 15.399-13.188 22.838-1.542-0.718-3.029-1.452-4.454-2.203zm18.996-61.025c-0.701-18.789 3.829-32.167 10.333-34.681 6.927-2.678 20.144 4.77 32.876 20.236 0.814 0.989 1.626 2.017 2.435 3.076-6.445 5.054-12.954 10.939-19.313 17.466-9.056-0.575-17.809-0.59-25.945-0.045-0.182-2.064-0.312-4.085-0.386-6.052zm78.69 33.084c-1.368-3.539-2.798-7.009-4.279-10.399 5.935 1.718 11.577 3.646 16.83 5.746-2.46 4.985-5.36 10.146-8.643 15.388-1.208-3.539-2.511-7.121-3.908-10.735zm-28.274-37.765c3.103 4.639 6.137 9.751 9.049 15.238-3.684-0.759-7.428-1.44-11.217-2.036-3.753-0.59-7.497-1.087-11.213-1.495 4.451-4.283 8.939-8.206 13.381-11.707zm-38.719 27.292c-2.387 2.958-4.69 5.954-6.9 8.972-1.481-5.971-2.636-11.795-3.45-17.371 5.606-0.36 11.536-0.443 17.671-0.249-2.482 2.796-4.927 5.681-7.321 8.647v1e-3zm-1.625 49.392c-6.107-1.671-11.821-3.532-17.049-5.561 2.527-5.149 5.475-10.448 8.785-15.789 1.183 3.549 2.462 7.109 3.837 10.666h1e-3c1.4 3.624 2.881 7.19 4.426 10.684zm24.216 27.38c-3.191-4.75-6.303-9.939-9.271-15.461 3.612 0.714 7.305 1.369 11.071 1.961 3.868 0.608 7.706 1.122 11.496 1.546-4.485 4.441-8.938 8.448-13.296 11.954zm45.436-36.781c1.628 6.181 2.887 12.111 3.749 17.698-5.7 0.39-11.8 0.467-18.178 0.234 2.461-2.812 4.912-5.728 7.344-8.741 2.46-3.049 4.824-6.118 7.085-9.191zm-13.472 4.036c-3.775 4.678-7.593 9.11-11.413 13.259-5.696-0.482-11.547-1.19-17.477-2.122-5.906-0.928-11.622-2.015-17.098-3.243-2.479-5.202-4.816-10.617-6.964-16.172h1e-3c-2.142-5.54-4.043-11.087-5.695-16.564 3.254-4.719 6.759-9.422 10.479-14.032l-1e-3 1e-3c3.73-4.622 7.585-9.038 11.506-13.204 5.711 0.461 11.534 1.148 17.384 2.068 5.876 0.923 11.636 2.059 17.211 3.376 2.41 5.126 4.706 10.493 6.849 16.039 2.168 5.608 4.101 11.13 5.788 16.514-3.263 4.693-6.799 9.408-10.57 14.08zm30.958-87.91c5.779 4.664 5.927 19.834-1.113 38.589-0.449 1.197-0.934 2.411-1.446 3.639-7.588-3.055-15.926-5.751-24.746-7.998-4.048-8.246-8.391-15.847-12.896-22.544 1.679-1.174 3.345-2.283 4.994-3.317 15.928-9.992 29.781-12.748 35.207-8.369zm-52.351 51.357c9.359 1.472 15.755 10.252 14.283 19.612-1.471 9.36-10.252 15.755-19.611 14.284-9.36-1.471-15.755-10.252-14.284-19.612s10.252-15.755 19.612-14.284z" fill="#00D8FF"/>
<path d="m169.14 17.49 8.332 0.6919-3.171 38.181c-3.617 0.4346-7.269 0.5105-10.901 0.2267-10.174-0.8554-15.092-5.8406-14.368-14.57 0.698-8.4058 6.769-13.403 15.476-12.68 1.223 0.0776 2.43 0.3202 3.588 0.7212l1.044-12.571zm-1.596 19.212c-0.881-0.3741-1.819-0.5951-2.775-0.6537-4.202-0.349-6.86 2.0182-7.234 6.5216-0.364 4.3857 1.761 6.9997 6.029 7.3542 0.958 0.0793 1.921 0.0885 2.88 0.0275l1.099-13.239 1e-3 -0.0105z" fill="#44B78B"/>
<path d="m189.65 32.014-1.589 19.123c-0.546 6.5838-1.303 9.7076-2.975 12.317-1.706 2.6531-4.299 4.6145-7.316 5.5351l-7.426-4.2837c2.887-0.7283 5.403-2.5014 7.059-4.9765 1.385-2.257 1.988-4.9555 2.584-12.136l1.351-16.269 8.312 0.6902z" fill="#44B78B"/>
<path d="m190.71 19.324-8.33-0.6917-0.703 8.4646 8.33 0.6917 0.703-8.4646z" fill="#44B78B"/>
<path d="m240.25 343.56c-2.637 0.217-5.526 1.018-8.27 2.408-4.361 2.209-8.971 5.378-12.088 9.114-3.702 4.446-3.923 7.907-3.454 9.279 1.668 4.866 9.162 7.171 12.311 9.2-0.129 0.095-0.249 0.178-0.362 0.263-1.322 0.88-6.206 4.292-7.157 7.38-1.072 3.5 1.018 5.617 2.225 5.782 3.763 0.493 7.121-1.717 8.721-4.898 1.602-3.184 0.846-6.952-0.31-8.559-0.013-0.025-0.033-0.039-0.046-0.064 0.336-0.263 0.679-0.527 1.024-0.791 0.664-0.515 1.316-0.991 1.888-1.406-0.224 0.964-0.325 2.105-0.24 3.717 0.098 1.889 1.214 4.198 2.368 5.011 0.508 0.356 1.056 0.292 1.393 0.246 1.198-0.163 1.606-1.204 2.045-2.441 0.546-1.51 0.976-3.235 0.976-3.235s-0.213 4.539 2.02 4.236c0.815-0.11 1.493-1.247 1.786-1.823l1e-3 7e-3s9e-3 -0.034 0.045-0.109c0.069-0.139 0.102-0.22 0.102-0.22l-3e-3 -0.025c0.255-0.597 0.806-1.96 1.608-4.195 1.04-2.89 1.926-6.445 1.926-6.445 0.231 0.724 0.51 1.431 0.837 2.116 0.352 0.773 0.986 1.587 1.51 2.39-0.27 0.485-0.437 0.766-0.437 0.766 1e-3 8e-3 7e-3 0.014 0.013 0.017-0.215 0.375-0.462 0.778-0.717 1.177-0.936 1.442-2.057 3.101-2.172 3.549-0.141 0.528-0.037 0.893 0.4 1.128 0.325 0.181 0.854 0.143 1.393 0.029 0.99-0.204 1.66-0.539 1.979-0.737 0.594-0.303 1.143-0.684 1.629-1.135 0.98-0.929 1.489-2.14 1.228-3.608-0.146-0.811-0.529-1.591-0.962-2.309 0.078-0.149 0.164-0.306 0.239-0.464 1.386-2.686 2.348-5.559 2.348-5.559 0.231 0.724 0.51 1.431 0.837 2.116 0.302 0.659 0.813 1.359 1.287 2.048-1.439 1.501-2.239 3.123-2.455 4.147-0.397 1.895 0.22 2.639 1.192 2.698 0.437 0.027 1.016-0.248 1.443-0.495 0.641-0.309 1.229-0.713 1.746-1.199 0.98-0.929 1.882-2.165 1.61-3.641-0.117-0.667-0.397-1.313-0.736-1.923 1.288-0.745 3.016-1.291 5.308-1.344 4.91-0.104 6.259 2.722 6.244 3.977-0.014 1.256-0.938 2.082-1.249 2.332-0.312 0.25-0.404 0.341-0.357 0.491 0.072 0.215 0.226 0.184 0.506 0.093 0.391-0.123 2.398-1.345 2.185-3.642-0.253-2.904-3.519-5.692-8.541-4.988l-7e-3 1e-3c-1.745 0.238-3.411 0.863-4.874 1.83-0.65-0.94-1.301-1.752-1.476-2.401-0.208-0.759-0.381-1.202-0.385-2.133-2e-3 -0.934 0.367-2.309 0.345-2.402-0.022-0.091-0.198-0.542-1.318-0.399-1.121 0.142-2.057 0.495-2.129 0.797-0.126 0.555-0.207 1.117-0.239 1.683-0.066 1.021-1.624 4.847-2.527 6.855-0.479-0.671-0.886-1.263-1.024-1.763-0.208-0.758-0.385-1.201-0.389-2.132-2e-3 -0.934 0.371-2.309 0.349-2.402-0.022-0.092-0.198-0.542-1.319-0.4-1.12 0.143-2.058 0.496-2.132 0.798-0.073 0.304-0.104 0.999-0.239 1.683-0.138 0.685-2.052 6.965-2.555 8.598-0.259 0.831-0.487 1.502-0.656 1.957-0.026 0.073-0.044 0.12-0.056 0.155 0.02-0.046 0.032-0.091 0.034-0.075-0.141 0.391-0.227 0.61-0.227 0.61l1e-3 7e-3c-0.111 0.293-0.242 0.564-0.32 0.574-0.052 7e-3 -0.262-0.691-0.204-1.693 0.129-2.11 0.661-5.434 0.637-5.544-0.018-0.058 0.095-0.636-0.76-0.822-0.829-0.172-1.048 0.334-1.118 0.344-0.071 9e-3 -0.1 0.186-0.1 0.186s0.385-3.718-2.175-3.371c-1.599 0.217-3.59 2.234-4.47 3.934-0.636 0.458-2.014 1.451-3.463 2.504-0.555 0.404-1.124 0.818-1.664 1.21-0.048-0.037-0.09-0.073-0.14-0.11-3.549-2.822-9.598-4.336-9.947-8.725-0.128-1.599-0.127-5.842 9.568-12.313 7.949-5.297 14.906-5.084 16.42-2.715 2.174 3.381-2.237 10.82-10.943 12.986-3.318 0.822-5.063-0.39-5.57-0.806-0.528-0.438-0.603-0.455-0.765-0.338-0.266 0.19-0.023 0.608 0.116 0.857 0.353 0.635 1.656 1.528 3.586 1.872 1.695 0.298 5.485 0.227 10.015-2.229 5.091-2.749 8.444-8.796 6.58-13.341-1.185-2.887-4.882-4.151-9.277-3.789zm0.239 23.127c0.137-8e-3 0.245 0.029 0.314 0.116 0.372 0.461-0.486 4.341-0.721 5.22-0.375 1.41-1.087 4.966-1.825 4.884-0.628-0.07-1.355-2.61-0.841-5.274 0.26-1.341 0.974-2.994 1.441-3.663 0.56-0.809 1.22-1.257 1.632-1.283zm18.613 1.741c0.142 0.283 0.238 0.587 0.288 0.897 0.25 1.914-1.05 2.815-1.851 3.225-0.19-0.095-0.222-0.498 0.192-1.817 0.16-0.514 0.573-1.4 1.371-2.305zm-28.881 6.065c1.07 2.483 0.686 4.853-0.755 6.875-1.365 1.923-3.519 2.873-4.556 2.461-1.113-0.447-1.046-3.017 0.678-5.104 1.049-1.266 2.458-2.494 3.397-3.261 0.217-0.167 0.525-0.417 0.908-0.72 0.065-0.053 0.098-0.073 0.098-0.073 0.071-0.06 0.15-0.114 0.23-0.178zm21.858-2.665c6e-3 0.043 0.023 0.086 0.03 0.136 0.195 1.521-1.162 2.75-1.785 3.25l7e-3 -1e-3 1e-3 3e-3c-0.219 0.151-0.427 0.255-0.539 0.21-0.084-0.032 0.07-0.216 0.07-0.216s1.034-1.431 1.432-2.074c0.232-0.377 0.498-0.82 0.784-1.308z" fill="#C66394"/>
<path d="m253.41 224.28c0.921-3.055-0.809-6.278-3.864-7.198-0.197-0.06-0.394-0.108-0.591-0.145l14.352-20.119-32.288-9.731 0.839 24.676c-0.109-0.041-0.22-0.079-0.333-0.113-3.055-0.92-6.278 0.81-7.199 3.865-0.744 2.469 0.244 5.048 2.263 6.432-1.795 1.688-3.834 3.081-5.999 4.163-2.943 1.472-6.06 2.321-9.202 2.476-2.854-2.753-3.286-7.093-0.827-10.042 0.277-0.333 0.56-0.67 0.835-1.008 2.619 0.166 5.103-1.478 5.893-4.099 0.921-3.055-0.809-6.278-3.865-7.199-3.055-0.92-6.278 0.81-7.199 3.865-0.564 1.873-0.131 3.809 0.992 5.239-2.308 2.705-5.304 5.361-7.071 8.953-2.117 4.305-2.818 9.341 0.283 13.239 7.221 9.077 20.218 1.815 31.441 2.387 4.068 0.208 8.178 1.611 12.096 0.684 2.942-0.696 5.318-2.602 6.6-5.16 1.267-2.527 1.392-5.386 0.489-8.007 1.092-0.718 1.948-1.808 2.355-3.158z" fill="#99425B"/>
<path d="m249.3 234.81c-1.113 2.221-3.177 3.832-5.664 4.42-2.317 0.548-4.785 0.177-7.397-0.217-1.399-0.211-2.847-0.429-4.302-0.503-3.848-0.196-7.838 0.482-11.695 1.137-7.721 1.312-14.388 2.444-18.714-2.994-3.168-3.983-1.436-9.064-0.121-11.737 1.219-2.478 3.112-4.527 4.942-6.509 0.317-0.342 0.627-0.679 0.931-1.013 0.493 0.393 1.043 0.725 1.643 0.982-2.295 3.451-1.73 8.127 1.481 11.224l0.439 0.423 0.61-0.03c3.326-0.164 6.61-1.046 9.763-2.623 2.038-1.018 3.901-2.263 5.556-3.695 0.321 0.152 0.656 0.282 1.006 0.388 3.487 1.051 7.16-0.686 8.622-3.918 1.443 0.378 2.959 0.835 4.378 1.319-0.568 3.502 1.534 6.979 5.021 8.03 1.458 0.439 2.948 0.39 4.296-0.05 0.296 1.816 0.048 3.685-0.795 5.366zm-36.288-27.223c2.306 0.695 3.616 3.136 2.921 5.441-0.25 0.828-0.725 1.527-1.338 2.051-1.022 0.875-2.427 1.262-3.812 0.945-0.097-0.022-0.194-0.046-0.291-0.075-0.514-0.155-0.977-0.397-1.381-0.704-0.817-0.622-1.385-1.514-1.613-2.503-0.165-0.715-0.153-1.482 0.073-2.234 0.695-2.305 3.136-3.616 5.441-2.921zm12.66 8.333c0.631-2.094 2.704-3.367 4.806-3.061 0.212 0.03 0.424 0.077 0.635 0.14 1.34 0.404 2.342 1.399 2.811 2.613 0.116 0.302 0.201 0.617 0.249 0.94 0.09 0.614 0.051 1.256-0.139 1.888-0.101 0.334-0.24 0.647-0.408 0.936-0.922 1.583-2.769 2.448-4.605 2.091-0.143-0.028-0.286-0.063-0.428-0.106-0.835-0.252-1.538-0.733-2.064-1.353-0.926-1.093-1.3-2.618-0.857-4.088zm18.947 0.288c-1.154 0.587-2.15 1.481-2.852 2.612-1.531-0.525-3.173-1.02-4.729-1.425 0.042-1.419-0.343-2.798-1.064-3.975l6.962-7.443 1.683 10.231zm-12.128-27.204 28.519 8.595-12.724 17.836c-0.313-0.018-0.624-0.015-0.932 7e-3l-2.563-15.579-10.74 11.482c-0.258-0.186-0.532-0.356-0.818-0.508l-0.742-21.833zm19.563 34.867c-0.126 0.42-0.311 0.805-0.541 1.153-0.549 0.826-1.36 1.431-2.281 1.734-0.821 0.271-1.73 0.302-2.619 0.034-1.93-0.582-3.162-2.388-3.104-4.314 0.012-0.374 0.071-0.752 0.184-1.127 0.172-0.571 0.452-1.081 0.81-1.515 0.184-0.224 0.391-0.425 0.613-0.606 1.088-0.883 2.578-1.233 4.017-0.8 0.132 0.04 0.261 0.086 0.386 0.137 2.063 0.838 3.19 3.131 2.535 5.304zm2.702 0.815c1.013-3.361-0.563-6.894-3.571-8.454l14.408-20.199-36.057-10.867 0.846 24.846c-3.285-0.243-6.423 1.812-7.412 5.094-0.743 2.464-0.093 5.021 1.492 6.825-1.36 1.116-2.87 2.096-4.508 2.915-2.598 1.299-5.288 2.067-8.005 2.287-1.984-2.275-2.145-5.486-0.309-7.688l0.143-0.172 0.27-0.324c2.971-0.127 5.677-2.103 6.582-5.107 1.144-3.795-1.013-7.813-4.808-8.957-3.796-1.144-7.814 1.013-8.958 4.809-0.577 1.915-0.312 3.887 0.578 5.518-0.377 0.42-0.769 0.845-1.171 1.28-1.875 2.031-4.002 4.333-5.401 7.178-2.779 5.651-2.621 10.886 0.445 14.74 1.86 2.339 4.055 3.699 6.458 4.424 4.526 1.364 9.789 0.47 14.936-0.405 3.707-0.629 7.541-1.281 11.079-1.1 1.317 0.067 2.633 0.265 4.026 0.475 2.762 0.416 5.619 0.846 8.467 0.172 3.301-0.781 6.049-2.932 7.537-5.901 1.278-2.549 1.528-5.413 0.846-8.111 0.953-0.852 1.692-1.967 2.087-3.278z" fill="#fff"/>
<path d="m269.6 43.884-11.766-5.2422c-0.664-0.2965-1.404-0.379-2.118-0.2359-0.713 0.143-1.364 0.5045-1.863 1.0342l-36.952 35.744c-0.448 0.4317-0.707 1.0238-0.719 1.6462-0.011 0.6223 0.224 1.2238 0.656 1.6722 0.052 0.0529 0.104 0.1037 0.16 0.1504l3.183 2.725c0.416 0.3567 0.944 0.5565 1.492 0.5646s1.082-0.176 1.508-0.5204l44.716-36.038c0.337-0.2724 0.745-0.4451 1.175-0.4987 0.431-0.0536 0.868 0.0141 1.262 0.1954s0.73 0.469 0.969 0.8308c0.24 0.3618 0.374 0.7833 0.387 1.217l-4e-3 -0.1348c-0.02-0.6622-0.226-1.3053-0.595-1.8555-0.369-0.5501-0.886-0.9849-1.491-1.2544z" fill="#0065A9"/>
<path d="m270.91 88.026-11.436 5.9301c-0.646 0.3343-1.379 0.4599-2.1 0.3593-0.72-0.1007-1.392-0.4225-1.921-0.921l-38.999-33.501c-0.473-0.4045-0.766-0.9803-0.815-1.6008-0.048-0.6206 0.152-1.235 0.556-1.7081 0.049-0.0558 0.097-0.1096 0.15-0.1595l3.017-2.9083c0.395-0.3823 0.911-0.6139 1.459-0.6544s1.093 0.1127 1.539 0.4328l46.761 33.334c0.353 0.2519 0.77 0.4003 1.203 0.4283 0.433 0.0281 0.865-0.0653 1.248-0.2696 0.382-0.2042 0.701-0.5113 0.918-0.8866 0.218-0.3753 0.327-0.8039 0.314-1.2377l4e-3 0.1449c0.018 0.6604-0.151 1.3124-0.487 1.8814-0.335 0.569-0.824 1.0321-1.411 1.3362z" fill="#007ACC"/>
<path d="m259.47 93.956c-0.647 0.3343-1.38 0.4599-2.101 0.3592-0.72-0.1006-1.392-0.4224-1.921-0.921 0.297 0.2766 0.669 0.4593 1.07 0.5252s0.812 0.0121 1.182-0.1547c0.371-0.1669 0.683-0.4393 0.9-0.7831 0.216-0.3438 0.326-0.7438 0.315-1.1498l-1.508-51.039c-0.012-0.4079-0.145-0.8031-0.381-1.1355-0.237-0.3325-0.567-0.5873-0.948-0.7322-0.381-0.1448-0.797-0.1732-1.195-0.0815-0.397 0.0917-0.759 0.2993-1.038 0.5966 0.499-0.5296 1.15-0.891 1.863-1.0344s1.453-0.0616 2.118 0.234l11.764 5.2342c0.607 0.268 1.126 0.7022 1.496 1.2524 0.371 0.5502 0.579 1.1941 0.599 1.8572l1.119 37.824c0.019 0.6627-0.149 1.3174-0.485 1.8889-0.336 0.5714-0.827 1.0362-1.416 1.3408l-11.433 5.918z" fill="#1F9CF0"/>
<path d="m150.62 192.93-38.091-42.006c-0.521-0.577-1.151-1.045-1.853-1.377-0.702-0.333-1.463-0.524-2.239-0.562s-1.552 0.078-2.284 0.341c-0.731 0.262-1.403 0.667-1.978 1.189l-8.7241 7.912 10.033 11.064c1.264-0.363 2.605-0.363 3.87 0 1.265 0.362 2.402 1.073 3.282 2.05 0.881 0.978 1.469 2.183 1.698 3.478 0.229 1.296 0.089 2.629-0.403 3.849l9.659 10.652c1.544-0.447 3.194-0.352 4.676 0.269 1.482 0.622 2.706 1.733 3.468 3.147 0.762 1.415 1.017 3.048 0.721 4.628-0.295 1.579-1.123 3.01-2.345 4.053-1.223 1.043-2.766 1.636-4.372 1.68s-3.179-0.464-4.457-1.439c-1.277-0.976-2.181-2.359-2.563-3.92-0.381-1.561-0.215-3.206 0.469-4.66l-9.02-9.947-1.22 24.953c1.402 0.782 2.493 2.02 3.093 3.509s0.671 3.139 0.202 4.674-1.45 2.864-2.779 3.764-2.926 1.317-4.526 1.183c-1.6-0.135-3.105-0.814-4.265-1.923-1.1598-1.11-1.9047-2.583-2.1103-4.175-0.2057-1.592 0.1403-3.207 0.9803-4.575 0.84-1.367 2.123-2.406 3.636-2.943l1.231-25.182c-0.841-0.394-1.595-0.95-2.22-1.637s-1.108-1.491-1.421-2.365-0.449-1.802-0.402-2.729 0.277-1.836 0.677-2.674l-9.8769-10.899-28.805 26.13c-0.577 0.521-1.0454 1.151-1.3784 1.853-0.3329 0.703-0.5239 1.464-0.5618 2.24-0.038 0.777 0.0778 1.553 0.3407 2.285 0.2628 0.732 0.6676 1.404 1.1911 1.979l38.091 41.992c0.521 0.577 1.151 1.045 1.853 1.378 0.702 0.332 1.463 0.523 2.24 0.561 0.776 0.038 1.552-0.078 2.283-0.34 0.731-0.263 1.403-0.667 1.978-1.19l41.814-37.927c0.577-0.521 1.045-1.15 1.378-1.853 0.333-0.702 0.524-1.464 0.562-2.24 0.038-0.777-0.078-1.553-0.341-2.285-0.262-0.731-0.667-1.404-1.191-1.979" fill="#DD4C35"/>
<path d="m95.45 158.43 10.033 11.064c1.264-0.363 2.605-0.363 3.87 0 1.265 0.362 2.402 1.073 3.282 2.05 0.881 0.978 1.469 2.183 1.698 3.478 0.229 1.296 0.089 2.629-0.403 3.849l9.659 10.652c1.544-0.447 3.194-0.352 4.676 0.269 1.482 0.622 2.706 1.733 3.468 3.147 0.762 1.415 1.017 3.048 0.721 4.628-0.295 1.579-1.123 3.01-2.345 4.053-1.223 1.043-2.766 1.636-4.372 1.68s-3.179-0.464-4.457-1.439c-1.277-0.976-2.181-2.359-2.563-3.92-0.381-1.561-0.215-3.206 0.469-4.66l-9.02-9.947-1.22 24.953c1.402 0.782 2.493 2.02 3.093 3.509s0.671 3.139 0.202 4.674-1.45 2.864-2.779 3.764-2.926 1.317-4.526 1.183c-1.6-0.135-3.105-0.814-4.265-1.923-1.1597-1.11-1.9046-2.583-2.1103-4.175-0.2056-1.592 0.1403-3.207 0.9803-4.574 0.84-1.368 2.123-2.407 3.636-2.944l1.231-25.182c-0.841-0.394-1.595-0.95-2.22-1.637s-1.108-1.491-1.421-2.365c-0.312-0.874-0.449-1.802-0.402-2.729s0.277-1.836 0.677-2.674l-9.8768-10.899" fill="#fff"/>
<circle cx="165.33" cy="307.23" r="54.159" fill="#fff"/>
<mask id="a" fill="white">
<path d="m171.37 251.45c-30.332-3.076-57.4 19.027-60.474 49.339-2.461 24.272 11.183 46.44 32.249 55.909 2.703 0.797 3.87-0.801 4.019-2.269 0.132-1.304 0.451-4.756 0.895-9.336-15.617 1.758-17.752-9.258-17.752-9.258-1.86-6.581-5.298-8.646-5.298-8.646-4.625-3.898 0.732-3.282 0.732-3.282 5.466 0.932 7.828 6.497 7.828 6.497 4.045 8.897 12.243 7.274 15.533 6.179 0.839-3.489 2.517-5.777 4.212-6.975-12.049-2.612-24.388-8.63-22.255-29.67 0.61-6.008 3.233-10.686 7.141-14.173-0.468-1.438-1.761-7.22 1.957-14.484 0 0 4.744-1 14.529 7.162 4.519-0.772 9.248-0.906 13.914-0.464 4.664 0.504 9.266 1.588 13.539 3.248 11.162-6.038 15.605-4.107 15.605-4.107 2.181 7.863-0.246 13.264-0.921 14.589 3.093 4.197 4.724 9.31 4.115 15.315-2.138 21.088-15.444 24.436-27.783 24.541 1.741 1.837 3.186 5.399 2.666 10.529-0.744 7.344-1.413 13.253-1.594 15.041-0.145 1.427 0.642 3.241 3.526 2.975 22.691-4.956 40.492-23.952 42.95-48.19 3.074-30.312-19.007-57.399-49.339-60.475l6e-3 5e-3z"/>
</mask>
<path d="m171.37 251.45c-30.332-3.076-57.4 19.027-60.474 49.339-2.461 24.272 11.183 46.44 32.249 55.909 2.703 0.797 3.87-0.801 4.019-2.269 0.132-1.304 0.451-4.756 0.895-9.336-15.617 1.758-17.752-9.258-17.752-9.258-1.86-6.581-5.298-8.646-5.298-8.646-4.625-3.898 0.732-3.282 0.732-3.282 5.466 0.932 7.828 6.497 7.828 6.497 4.045 8.897 12.243 7.274 15.533 6.179 0.839-3.489 2.517-5.777 4.212-6.975-12.049-2.612-24.388-8.63-22.255-29.67 0.61-6.008 3.233-10.686 7.141-14.173-0.468-1.438-1.761-7.22 1.957-14.484 0 0 4.744-1 14.529 7.162 4.519-0.772 9.248-0.906 13.914-0.464 4.664 0.504 9.266 1.588 13.539 3.248 11.162-6.038 15.605-4.107 15.605-4.107 2.181 7.863-0.246 13.264-0.921 14.589 3.093 4.197 4.724 9.31 4.115 15.315-2.138 21.088-15.444 24.436-27.783 24.541 1.741 1.837 3.186 5.399 2.666 10.529-0.744 7.344-1.413 13.253-1.594 15.041-0.145 1.427 0.642 3.241 3.526 2.975 22.691-4.956 40.492-23.952 42.95-48.19 3.074-30.312-19.007-57.399-49.339-60.475l6e-3 5e-3z" fill="#000"/>
<path d="m171.37 251.45-0.287 2.836 1.813-5.244-1.526 2.408zm-28.225 105.25-1.169 2.6 0.177 0.079 0.185 0.055 0.807-2.734zm4.914-11.605 2.837 0.275 0.339-3.501-3.495 0.393 0.319 2.833zm-17.752-9.258 2.799-0.542-0.023-0.118-0.033-0.115-2.743 0.775zm-5.298-8.646-1.837 2.18 0.174 0.146 0.196 0.118 1.467-2.444zm0.732-3.282 0.479-2.81-0.076-0.013-0.078-9e-3 -0.325 2.832zm7.828 6.497-2.624 1.114 0.014 0.033 0.015 0.033 2.595-1.18zm15.533 6.179 0.9 2.705 1.501-0.5 0.371-1.538-2.772-0.667zm4.212-6.975 1.645 2.329 5.296-3.741-6.337-1.373-0.604 2.785zm-15.114-43.843 1.898 2.127 1.388-1.239-0.576-1.77-2.71 0.882zm1.957-14.484-0.587-2.789-1.331 0.28-0.619 1.21 2.537 1.299zm14.529 7.162-1.826 2.189 1.009 0.843 1.297-0.222-0.48-2.81zm13.914-0.464 0.307-2.834-0.038-4e-3 -0.269 2.838zm13.539 3.248-1.033 2.657 1.229 0.478 1.16-0.628-1.356-2.507zm15.605-4.107 2.747-0.762-0.364-1.31-1.247-0.542-1.136 2.614zm-0.921 14.589-2.54-1.294-0.799 1.569 1.044 1.417 2.295-1.692zm-23.668 39.856-0.024-2.851-6.552 0.056 4.507 4.756 2.069-1.961zm4.598 28.545 0.261 2.838 0.175-0.016 0.172-0.037-0.608-2.785zm-6.389-108.66 0.287-2.835-1.813 5.243 1.526-2.408zm0.294-2.831c-31.9-3.235-60.366 20.01-63.598 51.887l5.672 0.575c2.915-28.746 28.585-49.707 57.351-46.79l0.575-5.672zm-63.598 51.887c-2.589 25.529 11.764 48.84 33.916 58.797l2.337-5.2c-19.979-8.981-32.915-30.006-30.581-53.022l-5.672-0.575zm34.278 58.931c1.979 0.584 3.935 0.417 5.478-0.734 1.447-1.078 2.051-2.672 2.184-3.982l-5.672-0.575c-2e-3 0.025-7e-3 0.048-0.012 0.067-3e-3 9e-3 -5e-3 0.016-7e-3 0.021s-3e-3 7e-3 -3e-3 7e-3c0-1e-3 0.027-0.052 0.103-0.108 0.036-0.028 0.073-0.048 0.105-0.06 0.032-0.013 0.045-0.013 0.03-0.011-0.032 4e-3 -0.214 0.018-0.593-0.093l-1.613 5.468zm7.662-4.716c0.133-1.309 0.455-4.795 0.896-9.348l-5.674-0.55c-0.447 4.606-0.762 8.024-0.894 9.323l5.672 0.575zm-2.26-12.456c-7.043 0.793-10.578-1.297-12.378-3.133-0.954-0.971-1.532-1.986-1.87-2.75-0.168-0.38-0.272-0.689-0.331-0.887-0.029-0.098-0.047-0.168-0.056-0.203-4e-3 -0.017-6e-3 -0.026-6e-3 -0.025 0 0 1e-3 3e-3 2e-3 8e-3 1e-3 3e-3 1e-3 6e-3 2e-3 0.01 0 2e-3 1e-3 4e-3 1e-3 6e-3 0 1e-3 1e-3 3e-3 1e-3 3e-3 0 2e-3 1e-3 4e-3 -2.798 0.546-2.798 0.543-2.798 0.545-2.797 0.547v4e-3c1e-3 3e-3 2e-3 6e-3 2e-3 9e-3 2e-3 7e-3 3e-3 0.014 5e-3 0.022 3e-3 0.015 7e-3 0.034 0.011 0.055 9e-3 0.042 0.021 0.095 0.037 0.158 0.03 0.126 0.074 0.291 0.133 0.49 0.119 0.398 0.303 0.936 0.579 1.561 0.551 1.247 1.482 2.876 3.015 4.439 3.171 3.233 8.512 5.771 17.086 4.805l-0.638-5.665zm-14.69-7.2c-1.037-3.67-2.545-6.18-3.88-7.818-0.665-0.814-1.279-1.403-1.756-1.806-0.239-0.202-0.444-0.357-0.603-0.47-0.08-0.057-0.149-0.103-0.205-0.139-0.028-0.019-0.053-0.035-0.074-0.048-0.011-7e-3 -0.021-0.013-0.03-0.019-5e-3 -2e-3 -9e-3 -5e-3 -0.013-8e-3l-6e-3 -3e-3c-1e-3 -1e-3 -3e-3 -2e-3 -3e-3 -2e-3 -2e-3 -1e-3 -3e-3 -2e-3 -1.471 2.442-1.467 2.444-1.469 2.443-1.47 2.442 0 0-2e-3 -1e-3 -3e-3 -2e-3s-3e-3 -2e-3 -5e-3 -3e-3l-9e-3 -6e-3c-6e-3 -3e-3 -0.011-6e-3 -0.015-9e-3 -9e-3 -5e-3 -0.014-9e-3 -0.017-0.01-4e-3 -3e-3 3e-3 1e-3 0.021 0.014 0.035 0.025 0.114 0.083 0.227 0.178 0.224 0.19 0.586 0.529 1.014 1.053 0.848 1.04 1.989 2.853 2.812 5.765l5.486-1.551zm-6.204-10.051c-0.499-0.42-0.787-0.718-0.941-0.903-0.173-0.207-0.084-0.164-4e-3 0.101 0.046 0.151 0.094 0.393 0.071 0.702-0.023 0.32-0.119 0.645-0.288 0.942-0.327 0.573-0.777 0.793-0.9 0.846-0.137 0.06-0.191 0.057-0.1 0.044 0.073-0.01 0.18-0.018 0.313-0.019 0.128-1e-3 0.246 5e-3 0.332 0.01 0.041 3e-3 0.072 6e-3 0.088 7e-3 8e-3 1e-3 0.012 1e-3 0.012 1e-3h-4e-3 -4e-3c-1e-3 -1e-3 -2e-3 -1e-3 -3e-3 -1e-3h-1e-3c-1e-3 0-2e-3 0 0.324-2.832 0.325-2.832 0.325-2.832 0.324-2.832h-2e-3c-2e-3 0-3e-3 -1e-3 -4e-3 -1e-3 -3e-3 0-7e-3 0-0.01-1e-3 -8e-3 -1e-3 -0.017-2e-3 -0.027-3e-3 -0.02-2e-3 -0.045-4e-3 -0.075-7e-3 -0.06-6e-3 -0.14-0.012-0.236-0.019-0.19-0.013-0.454-0.025-0.756-0.023-0.491 4e-3 -1.513 0.041-2.458 0.454-0.503 0.22-1.261 0.668-1.764 1.55-0.553 0.969-0.54 2-0.289 2.831 0.228 0.755 0.657 1.39 1.077 1.895 0.439 0.528 0.994 1.064 1.651 1.618l3.674-4.36zm-1.584 1.708c1.838 0.313 3.245 1.419 4.265 2.628 0.502 0.593 0.872 1.169 1.114 1.591 0.119 0.209 0.204 0.374 0.255 0.479 0.025 0.052 0.042 0.088 0.05 0.106 4e-3 9e-3 6e-3 0.013 6e-3 0.013l-2e-3 -4e-3c0-2e-3 -1e-3 -3e-3 -2e-3 -5e-3 0-1e-3 -1e-3 -2e-3 -1e-3 -4e-3l-1e-3 -1e-3c0-1e-3 -1e-3 -2e-3 2.623-1.116s2.624-1.115 2.623-1.116c0 0 0-1e-3 -1e-3 -2e-3 0-1e-3 -1e-3 -3e-3 -2e-3 -5e-3 -1e-3 -3e-3 -3e-3 -7e-3 -5e-3 -0.011-3e-3 -8e-3 -7e-3 -0.017-0.012-0.028-9e-3 -0.022-0.021-0.048-0.036-0.08-0.029-0.064-0.068-0.149-0.118-0.251-0.1-0.203-0.242-0.479-0.429-0.807-0.372-0.65-0.935-1.525-1.707-2.438-1.526-1.808-4.034-3.95-7.662-4.569l-0.958 5.62zm5.712 4.867c2.414 5.31 6.254 7.716 10.107 8.456 3.658 0.702 7.074-0.138 8.921-0.752l-1.8-5.41c-1.443 0.481-3.771 1-6.046 0.563-2.08-0.399-4.361-1.629-5.992-5.217l-5.19 2.36zm20.9 5.666c0.706-2.939 2.048-4.581 3.085-5.313l-3.289-4.657c-2.354 1.663-4.368 4.596-5.339 8.637l5.543 1.333zm2.044-10.427c-5.859-1.271-11.275-3.277-15.003-7.123-3.603-3.718-6.024-9.575-5.02-19.474l-5.672-0.575c-1.129 11.14 1.553 18.812 6.598 24.017 4.921 5.076 11.699 7.384 17.889 8.726l1.208-5.571zm-20.023-26.597c0.535-5.275 2.808-9.305 6.203-12.334l-3.796-4.254c-4.42 3.944-7.395 9.27-8.079 16.013l5.672 0.575zm7.015-15.343c-0.295-0.909-1.506-5.875 1.785-12.303l-5.075-2.598c-4.146 8.1-2.771 14.698-2.131 16.665l5.421-1.764zm-0.753-13.602c0.588 2.789 0.585 2.79 0.582 2.79-1e-3 0-3e-3 1e-3 -5e-3 1e-3 -4e-3 1e-3 -7e-3 2e-3 -0.011 3e-3 -7e-3 1e-3 -0.013 2e-3 -0.02 4e-3 -0.013 2e-3 -0.024 4e-3 -0.035 6e-3 -0.021 4e-3 -0.038 6e-3 -0.05 8e-3 -0.025 4e-3 -0.032 4e-3 -0.02 3e-3 0.022-2e-3 0.119-8e-3 0.292 2e-3 0.344 0.02 1.006 0.102 1.994 0.418 1.981 0.634 5.295 2.212 9.976 6.116l3.651-4.378c-5.104-4.257-9.054-6.26-11.891-7.168-1.421-0.454-2.557-0.631-3.408-0.68-0.424-0.024-0.774-0.015-1.049 6e-3 -0.138 0.01-0.256 0.024-0.355 0.038-0.049 7e-3 -0.094 0.014-0.134 0.021-0.02 4e-3 -0.038 7e-3 -0.056 0.011-9e-3 1e-3 -0.017 3e-3 -0.025 5e-3 -4e-3 1e-3 -8e-3 1e-3 -0.012 2e-3 -2e-3 1e-3 -5e-3 1e-3 -6e-3 1e-3 -3e-3 1e-3 -5e-3 2e-3 0.582 2.791zm15.009 9.972c4.252-0.727 8.728-0.857 13.166-0.436l0.537-5.676c-4.896-0.464-9.877-0.326-14.664 0.493l0.961 5.619zm13.128-0.44c4.434 0.479 8.789 1.508 12.812 3.071l2.065-5.314c-4.522-1.757-9.37-2.896-14.264-3.425l-0.613 5.668zm15.201 2.921c5.337-2.886 8.883-3.767 10.94-3.991 1.026-0.111 1.687-0.06 2.027-0.01 0.17 0.025 0.264 0.05 0.285 0.057 0.011 3e-3 4e-3 1e-3 -0.019-7e-3 -0.012-4e-3 -0.028-0.01-0.048-0.018-0.01-4e-3 -0.021-9e-3 -0.033-0.014-6e-3 -2e-3 -0.012-5e-3 -0.019-8e-3 -3e-3 -1e-3 -6e-3 -3e-3 -0.01-4e-3 -1e-3 -1e-3 -4e-3 -2e-3 -5e-3 -2e-3 -2e-3 -1e-3 -5e-3 -2e-3 1.131-2.617 1.136-2.614 1.134-2.615 1.131-2.616-1e-3 -1e-3 -4e-3 -2e-3 -6e-3 -3e-3 -3e-3 -1e-3 -7e-3 -3e-3 -0.011-4e-3 -7e-3 -4e-3 -0.015-7e-3 -0.023-0.01-0.017-7e-3 -0.034-0.014-0.053-0.022-0.038-0.015-0.08-0.031-0.127-0.048-0.094-0.033-0.207-0.07-0.339-0.108-0.266-0.076-0.606-0.155-1.027-0.216-0.842-0.124-1.989-0.178-3.469-0.017-2.955 0.32-7.212 1.493-13.037 4.644l2.712 5.014zm11.502-5.852c1.925 6.94-0.231 11.585-0.714 12.533l5.08 2.589c0.867-1.703 3.565-7.86 1.128-16.646l-5.494 1.524zm-0.469 15.519c2.691 3.651 4.109 8.063 3.574 13.336l5.672 0.575c0.684-6.738-1.161-12.551-4.657-17.294l-4.589 3.383zm3.574 13.336c-1.006 9.924-4.556 15.167-8.831 18.068-4.425 3.003-10.136 3.859-16.14 3.909l0.048 5.701c6.335-0.053 13.446-0.924 19.294-4.893 5.998-4.071 10.169-11.047 11.301-22.21l-5.672-0.575zm-27.016 26.789c1.048 1.105 2.356 3.78 1.899 8.28l5.672 0.575c0.584-5.76-0.998-10.208-3.433-12.777l-4.138 3.922zm1.899 8.28c-0.371 3.664-0.724 6.97-1.006 9.586-0.281 2.603-0.496 4.549-0.588 5.455l5.672 0.575c0.089-0.881 0.299-2.784 0.584-5.418 0.283-2.622 0.637-5.942 1.01-9.623l-5.672-0.575zm-1.594 15.041c-0.13 1.279 0.127 2.966 1.345 4.318 1.298 1.442 3.204 1.974 5.278 1.783l-0.523-5.677c-0.419 0.039-0.609-0.012-0.646-0.024-0.017-6e-3 -4e-3 -4e-3 0.027 0.016s0.066 0.049 0.1 0.087c0.07 0.077 0.09 0.142 0.092 0.15 0 1e-3 -6e-3 -0.029-1e-3 -0.078l-5.672-0.575zm6.97 6.048c23.864-5.212 42.593-25.192 45.178-50.688l-5.672-0.575c-2.33 22.98-19.205 40.994-40.723 45.693l1.217 5.57zm45.178-50.688c3.232-31.877-19.988-60.363-51.888-63.597l-0.575 5.671c28.766 2.917 49.706 28.605 46.791 57.351l5.672 0.575zm-53.701-58.354 7e-3 5e-3 3.051-4.816-7e-3 -4e-3 -3.051 4.815z" fill="#fff" mask="url(#a)"/>
<path d="m82.486 583.82h65.917v21.972h-32.958v3.663h-14.649v-3.663h-18.31v-21.972zm3.6617 18.31h7.3251v-10.987h3.6617v10.987h3.6615v-14.648h-14.648v14.65-2e-3zm18.31-14.648v18.31h7.325v-3.662h7.323v-14.648h-14.648zm7.325 3.661h3.662v7.325h-3.662v-7.325zm10.985-3.661v14.65h7.325v-10.989h3.662v10.987h3.662v-10.987h3.663v10.987h3.662v-14.648h-21.974z" fill="#CB3837"/>
<path d="m86.148 602.13h7.3251v-10.987h3.6617v10.987h3.6616v-14.648h-14.648v14.65-2e-3zm18.31-14.648v18.31h7.325v-3.662h7.323v-14.648h-14.648zm10.987 10.988h-3.662v-7.325h3.662v7.325zm7.323-10.988v14.65h7.325v-10.989h3.662v10.987h3.662v-10.987h3.663v10.987h3.662v-14.648h-21.974z" fill="#fff"/>
<rect x="68.412" y="516.15" width="22.804" height="25.654" fill="#fff"/>
<path d="m61.986 512.92c-2.705 0.569-4.2085 3.358-3.5788 5.907 0.6049 2.448 1.1652 5.666 0.9089 8.441-0.257 2.783-1.2732 4.725-3.457 5.406l0.5047 2.399c2.2732-0.256 3.9858 1.112 5.3421 3.556 1.3524 2.436 2.1361 5.607 2.569 8.092 0.4504 2.586 2.95 4.533 5.6554 3.964l27.717-5.831c2.7048-0.569 4.2078-3.357 3.5788-5.906-0.605-2.448-1.166-5.667-0.909-8.441 0.257-2.783 1.27-4.724 3.454-5.406l-0.505-2.399c-2.273 0.256-3.9823-1.113-5.339-3.556-1.3523-2.436-2.136-5.607-2.569-8.092-0.4503-2.586-2.9496-4.533-5.6547-3.964l-27.718 5.83h4e-4zm27.184 18.557c0.7438 3.536-1.4424 6.235-5.8186 7.155l-7.4497 1.567c-0.2131 0.045-0.4353 3e-3 -0.6176-0.116-0.1824-0.119-0.3101-0.305-0.3549-0.518l-3.8874-18.481c-0.0449-0.213-0.0032-0.435 0.1158-0.618 0.119-0.182 0.3056-0.31 0.5186-0.354l7.4072-1.559c3.6489-0.767 6.4595 0.706 7.0979 3.741 0.4481 2.13-0.7616 4.376-2.7441 5.141l0.0235 0.112c2.8587-0.282 5.1471 1.257 5.7093 3.93zm-10.321-10.214-4.2478 0.893 1.2621 6 3.5776-0.753c2.7656-0.581 4.0564-2.016 3.6377-4.007-0.3924-1.865-1.9205-2.619-4.2296-2.133zm-2.4849 9.274 1.3909 6.612 4.404-0.927c2.8794-0.605 4.1616-2.082 3.7049-4.253-0.4569-2.172-2.2591-2.956-5.2811-2.32l-4.2188 0.887 1e-4 1e-3z" clip-rule="evenodd" fill="url(#b)" fill-rule="evenodd"/>
<path d="m9.3312 88.066-9.3312-52.92 105.84-18.662 18.662 105.84-105.84 18.663" fill="#007ACC"/>
<path d="m32.569 84.159 0.7605 4.313 13.759-2.4262 6.9051 39.161 9.7638-1.722-6.9051-39.161 13.759-2.4261-0.7465-4.2336c-0.4199-2.3814-0.7605-4.313-0.8757-4.3472-0.014-0.0794-8.4065 1.3731-18.594 3.1694l-18.508 3.3453 0.7652 4.3395-0.0841-0.0125zm61.058-15.322c2.8109 0.1592 5.0894 1.0124 7.2818 2.6174 1.166 0.8858 2.948 2.4814 3.138 2.939 0.028 0.1587-4.004 4.0617-6.479 6.2715-0.0918 0.098-0.5945-0.2771-1.1392-0.8904-1.7211-1.7155-3.2728-2.3149-5.497-2.0864-3.2125 0.3482-5.0354 2.3884-4.5455 5.1667 0.1493 0.8467 0.392 1.295 0.8309 1.927 0.971 1.3293 2.448 1.9692 6.8665 3.0453 8.1413 1.9202 11.8 3.485 14.326 6.2044 2.855 3.0432 4.31 8.3528 3.516 12.667-0.915 4.717-4.515 8.435-10.243 10.455-1.7964 0.644-6.0393 1.337-8.0845 1.343-4.3736-0.047-8.7952-1.45-11.763-3.737-1.1656-0.886-3.5435-3.386-3.4703-3.589l0.8935-0.813 3.5631-3.002 2.682-2.273 0.8513 0.805c1.1158 1.222 3.4004 2.728 4.6501 3.163 3.7524 1.166 8.3145 0.116 10.226-2.349 0.821-1.072 1.076-2.099 0.843-3.422-0.215-1.218-0.498-1.741-1.27-2.559-1.0519-1.0152-2.9133-1.6692-8.0493-2.9462-5.8878-1.3627-8.4776-2.4339-11.048-4.3269-1.4863-1.1566-3.0019-3.0992-3.8437-4.7787-0.6675-1.4647-1.4624-5.1987-1.3579-6.7723 0.2047-5.4926 3.547-9.9015 9.0757-11.968 1.7869-0.697 6.1808-1.3081 8.0905-1.1537l-0.0436 0.0622z" fill="#fff"/>
<defs>
<linearGradient id="b" x1="75.843" x2="83.787" y1="510" y2="547.77" gradientUnits="userSpaceOnUse">
<stop stop-color="#8014F2" offset="0"/>
<stop stop-color="#6611E3" offset="1"/>
</linearGradient>
</defs>
</svg>
