<?xml version="1.0" encoding="UTF-8"?>
<svg data-name="Layer 1" viewBox="0 0 991.14 770.18" xmlns="http://www.w3.org/2000/svg">
<title>professor</title>
<path transform="translate(-104.43 -64.911)" d="m394.01 64.911-157.85 85.502a40.156 40.156 0 1 1-70.587 38.234l-53.823 29.154 139.42 257.39 282.26-152.89z" fill="#f2f2f2"/>
<circle cx="94.604" cy="105.67" r="32.587" fill="#3A86FF"/>
<path transform="translate(-104.43 -64.911)" d="m790.38 753.98 170.67-55.671a40.156 40.156 0 1 1 76.319-24.894l58.194-18.982-90.777-278.3-305.19 99.548z" fill="#f2f2f2"/>
<circle cx="896.78" cy="620.24" r="32.587" fill="#3A86FF"/>
<rect x="115.5" y="152.68" width="788" height="358" fill="#3f3d56"/>
<rect x="128.5" y="165.68" width="762" height="325" fill="#fff"/>
<rect x="739" y="475.18" width="74" height="25" fill="#3f3d56"/>
<rect x="681" y="494.18" width="54" height="7" fill="#3A86FF"/>
<polyline points="190.5 288.68 481.5 288.68 526.62 310.66 598.5 345.68 645.5 257.68 778.5 257.68" fill="none" stroke="#3f3d56" stroke-miterlimit="10" stroke-width="2"/>
<polyline points="304.92 288.68 326.5 339.68 379.5 339.68" fill="none" stroke="#3f3d56" stroke-miterlimit="10" stroke-width="2"/>
<polyline points="385.81 288.68 459.5 248.68 511.5 248.68" fill="none" stroke="#3f3d56" stroke-miterlimit="10" stroke-width="2"/>
<circle cx="304.5" cy="288.68" r="9" fill="#3A86FF"/>
<circle cx="388.5" cy="288.68" r="9" fill="#3A86FF"/>
<polyline points="526.5 310.68 532.5 399.68 584.5 399.68" fill="none" stroke="#3f3d56" stroke-miterlimit="10" stroke-width="2"/>
<polyline points="626.65 292.97 569.5 248.68 623.5 248.68" fill="none" stroke="#3f3d56" stroke-miterlimit="10" stroke-width="2"/>
<polyline points="721.05 257.68 776.5 301.68 828.5 301.68" fill="none" stroke="#3f3d56" stroke-miterlimit="10" stroke-width="2"/>
<circle cx="526.5" cy="310.68" r="9" fill="#3A86FF"/>
<circle cx="720.5" cy="257.68" r="9" fill="#3A86FF"/>
<circle cx="626.5" cy="292.68" r="9" fill="#3A86FF"/>
<line x1="327.5" x2="379.5" y1="347.68" y2="347.68" fill="none" stroke="#3f3d56" stroke-miterlimit="10" stroke-width="2"/>
<path transform="translate(-104.43 -64.911)" d="m615.93 322.59z" fill="none" stroke="#3f3d56" stroke-miterlimit="10" stroke-width="2"/>
<path transform="translate(-104.43 -64.911)" d="m727.93 321.59z" fill="none" stroke="#3f3d56" stroke-miterlimit="10" stroke-width="2"/>
<path transform="translate(-104.43 -64.911)" d="m727.93 329.59z" fill="none" stroke="#3f3d56" stroke-miterlimit="10" stroke-width="2"/>
<path transform="translate(-104.43 -64.911)" d="m932.93 374.59z" fill="none" stroke="#3f3d56" stroke-miterlimit="10" stroke-width="2"/>
<path transform="translate(-104.43 -64.911)" d="m913.93 382.59z" fill="none" stroke="#3f3d56" stroke-miterlimit="10" stroke-width="2"/>
<path transform="translate(-104.43 -64.911)" d="m688.93 472.59z" fill="none" stroke="#3f3d56" stroke-miterlimit="10" stroke-width="2"/>
<circle cx="809.54" cy="75.53" r="14.756" fill="none" stroke="#3f3d56" stroke-miterlimit="10" stroke-width="2"/>
<ellipse cx="152" cy="742.18" rx="152" ry="28" fill="#f2f2f2"/>
<polygon points="256.39 493.66 229.27 507.34 231.03 510.83 258.14 497.15" fill="#3A86FF"/>
<path transform="translate(-104.43 -64.911)" d="m356.41 533.12-1.2182 7.3094s1.8274 50.557-11.573 34.72-4.2638-37.156-4.2638-37.156l3.6547-6.0912z" fill="#fbbebe"/>
<path transform="translate(-104.43 -64.911)" d="m278.44 299.22s-2.4365 25.583-3.6547 26.801 18.274 24.365 18.274 24.365l17.055-15.837s-1.2182-23.146 2.4365-28.019-34.111-7.3094-34.111-7.3094z" fill="#fbbebe"/>
<path transform="translate(-104.43 -64.911)" d="m278.44 299.22s-2.4365 25.583-3.6547 26.801 18.274 24.365 18.274 24.365l17.055-15.837s-1.2182-23.146 2.4365-28.019-34.111-7.3094-34.111-7.3094z" opacity=".1"/>
<polygon points="128.94 700.89 128.94 722.82 120.41 724.04 108.23 720.39 111.88 697.24" fill="#3f3d56"/>
<path transform="translate(-104.43 -64.911)" d="m222.4 776.77s-3.6547-9.7459-9.7459-8.5276-7.3094 8.5276-7.3094 8.5276-4.8729 18.274-12.182 24.365-14.619 21.928 0 24.365 26.801-3.6547 26.801-4.8729 3.6547-8.5276 9.7459-9.7459 10.964-2.4365 10.964-7.3094-3.6547-9.7459-3.6547-9.7459-1.2182-23.108-3.6547-20.082a24.234 24.234 0 0 0-3.6547 7.8993z" fill="#2f2e41"/>
<polygon points="181.32 689.93 176.45 708.2 188.63 710.64 194.72 704.55 195.94 688.71" fill="#3f3d56"/>
<path transform="translate(-104.43 -64.911)" d="m284.53 770.68s4.8729-3.6547 7.3094-3.6547h3.6547s0-8.5276 6.0912-8.5276 4.8729 6.0912 4.8729 6.0912 13.401 20.71 17.055 24.365 23.146 14.619 7.3094 19.492-26.801 4.8729-34.111-3.6547c0 0-7.3094-3.6547-12.182-3.6547s-10.964-2.4365-10.964-6.0912 3.6547-10.964 3.6547-10.964 2.4365-21.928 3.6547-19.492 3.6547 6.0912 3.6547 6.0912z" fill="#2f2e41"/>
<path transform="translate(-104.43 -64.911)" d="m232.15 474.65v40.202s-13.401 77.967-13.401 103.55-20.71 147.41-10.964 149.84 32.892 6.0912 34.111 2.4365 9.7459-119.39 10.964-120.61 26.801-97.459 26.801-97.459l4.8729 1.2182 2.4365 109.64s-12.182 98.677-6.0912 98.677 31.674-1.2182 31.674-8.5276 13.401-142.53 13.401-142.53 15.837-107.2 9.7459-118.17-6.0912-17.055-6.0912-17.055z" fill="#2f2e41"/>
<circle cx="194.11" cy="228.83" r="24.365" fill="#fbbebe"/>
<path transform="translate(-104.43 -64.911)" d="m293.06 335.77s-15.228-12.791-16.446-17.664c0 0-7.9185 7.9185-7.9185 9.1368s-34.111 4.8729-42.638 14.619-15.837 30.456-15.837 30.456l20.71 38.983s1.2182 21.928 1.2182 24.365-6.0912 41.42-3.6547 42.638 26.801 13.401 47.511 10.964 41.42-6.0912 47.511-6.0912 10.964 2.4365 10.964 0-3.6547-7.3094-3.6547-9.7459-1.2182-8.5276-1.2182-12.182-2.4365-9.7459-2.4365-14.619 26.801-70.658 26.801-70.658-1.2182-20.71-20.71-30.456-21.928-13.401-21.928-13.401-0.37979-7.3094-1.4081-7.3094-4.683 10.964-14.429 12.182z" fill="#d0cde1"/>
<polygon points="122.85 432.88 131.38 446.28 153.3 441.41 137.47 423.14" fill="#fbbebe"/>
<path transform="translate(-104.43 -64.911)" d="m346.66 366.22 7.3094 9.7459s14.619 70.658 12.182 96.24-4.8729 45.075-4.8729 45.075 4.8729 18.274 1.2182 18.274-25.583 1.2182-25.583-2.4365 2.4365-26.801 2.4365-26.801l-6.0912-53.602-13.401-18.274z" fill="#d0cde1"/>
<path transform="translate(-104.43 -64.911)" d="m282 281.91c1.4935-0.633 3.2201-0.1195 4.8195-0.38952 1.8782-0.31708 3.5588-1.7086 5.4555-1.533a10.484 10.484 0 0 1 2.5973 0.84328 3.3906 3.3906 0 0 0 2.6608 0.09529 1.5121 1.5121 0 0 0 0.57862-2.2711 7.5204 7.5204 0 0 0 4.3274-1.8628 3.2298 3.2298 0 0 1 0.82584-0.61957 2.6956 2.6956 0 0 1 2.1224 0.33059l2.7877 1.285a3.5258 3.5258 0 0 1 1.593 1.1395c0.33158 0.517 0.39648 1.2122 0.86613 1.6081 0.59923 0.50509 1.495 0.25792 2.2771 0.30743a2.9124 2.9124 0 0 1 2.6298 2.8398c-0.01108 0.81805-0.30863 1.8217 0.33839 2.3223 0.37528 0.29039 0.90808 0.24392 1.3477 0.42241 1.1395 0.4626 1.1439 2.0488 0.97555 3.267s-0.08506 2.8252 1.0861 3.2003c0.82465 0.2641 1.6674-0.29891 2.5242-0.42448 1.2925-0.18944 2.4885 0.619 3.6391 1.2376s2.6792 1.0358 3.6764 0.19207c0.928-0.78513 0.86846-2.2215 0.61327-3.41a18.79 18.79 0 0 0-1.7875-4.8869 3.102 3.102 0 0 1-0.51817-1.5208 2.7538 2.7538 0 0 1 1.2779-1.8601c1.4098-1.1145 3.0315-2.2366 3.4879-3.9748 0.335-1.2757-0.04182-2.6211-0.01273-3.9398 0.03541-1.6045 0.6734-3.2022 0.3742-4.779-0.54233-2.8582-3.7233-4.2337-5.7766-6.2945-2.8215-2.8318-3.7376-7.3611-7.0675-9.5728-2.6639-1.7694-6.1483-1.5582-9.1818-2.5706-3.3324-1.1121-6.0149-3.6671-9.302-4.9066a12.963 12.963 0 0 0-11.019 0.96648 11.028 11.028 0 0 1-3.2395 1.6551 11.647 11.647 0 0 1-2.9485-0.0342 11.381 11.381 0 0 0-5.6235 1.1603 3.1442 3.1442 0 0 0-1.5754 1.3816c-0.58852 1.3071 0.26647 3.3505-1.0236 3.9754-0.60147 0.29139-1.3116 0.01224-1.9797 0.02691-1.2993 0.02853-2.2989 1.1592-2.9172 2.3023a11.033 11.033 0 0 1-2.0441 3.2897c-1.5882 1.391-4.4738 1.6209-4.8888 3.6909a20.124 20.124 0 0 0 0.149 2.6223c-0.12 1.8345-2.0832 3.2287-1.9808 5.0643 0.11819 2.1172 2.8082 3.1517 3.5272 5.1466 0.54753 1.519-0.173 3.1614-0.66878 4.698s-0.6453 3.5062 0.63511 4.4899c0.50206 0.38571 1.1476 0.54384 1.6596 0.91623 1.3249 0.96364 1.3082 2.9084 1.1611 4.54a2.1354 2.1354 0 0 0 0.48137 1.944 1.7989 1.7989 0 0 0 1.4724 0.17681 6.0098 6.0098 0 0 0 3.8037-2.8624c0.42668-0.70547 0.51243-1.3272 1.2875-1.7016 0.52595-0.254 1.1646-0.02729 1.7-0.35691 2.547-1.568 1.6702-6.0415 4.7962-7.3664z" fill="#2f2e41"/>
<path transform="translate(-104.43 -64.911)" d="m213.88 368.66-3.6547 3.6547s-21.928 65.785-14.619 80.403 21.928 51.166 26.801 49.948 21.928-12.182 21.928-13.401-20.71-35.329-20.71-35.329-2.4365-7.3094-1.2182-8.5276 1.2182 0 0-2.4365-1.2182 0 1.2182-2.4365 2.4365-2.4365 2.4365-3.6547 7.3094-31.674 7.3094-31.674z" fill="#d0cde1"/>
<polygon points="128.33 446.89 155.13 438.36 158.78 446.89 129.55 452.98" fill="#2f2e41"/>
<polygon points="128.33 446.89 155.13 438.36 158.78 446.89 129.55 452.98" opacity=".1"/>
<polygon points="164.88 262.94 185.59 279.99 188.02 276.34" opacity=".1"/>
<polygon points="206.3 267.81 191.68 276.34 192.9 279.99" opacity=".1"/>
</svg>
